<?xml version="1.0" standalone="no"?><!DOCTYPE svg PUBLIC "-//W3C//DTD SVG 1.1//EN" "http://www.w3.org/Graphics/SVG/1.1/DTD/svg11.dtd"><svg t="1603379731366" class="icon" viewBox="0 0 1024 1024" version="1.1" xmlns="http://www.w3.org/2000/svg" p-id="3268" width="1024" height="1024" xmlns:xlink="http://www.w3.org/1999/xlink"><defs><style type="text/css"></style></defs><path d="M608 85.376a32 32 0 0 1 31.701333 27.690667L640 117.333333v32.085334c0 27.008-8.362667 52.053333-22.613333 72.704a160 160 0 0 1 107.562666 140.373333l10.922667 0.042667a96 96 0 0 0 95.573333-96.426667l-0.256-63.36a32 32 0 0 1 64-0.256l0.298667 63.36a160 160 0 0 1-150.869333 160.426667l-9.130667 0.256H725.333333v64.042666l181.461334 0.042667a32 32 0 0 1 31.701333 27.648l0.298667 4.352a32 32 0 0 1-27.648 31.701333l-4.352 0.298667H725.333333v85.333333h10.154667l9.130667 0.256a160 160 0 0 1 150.656 151.893334l0.213333 8.533333-0.298667 63.36a32 32 0 0 1-63.701333 4.096l-0.298667-4.352 0.298667-63.402667a96 96 0 0 0-89.045333-96.128l-6.570667-0.256h-20.309333a213.418667 213.418667 0 0 1-407.125334 0H287.573333a96 96 0 0 0-95.573333 96.426667l0.213333 63.36a32 32 0 1 1-64 0.256L128 800.64a160 160 0 0 1 150.826667-160.384L288 640H298.666667v-85.333333H117.333333a32 32 0 0 1-31.701333-27.648L85.333333 522.666667a32 32 0 0 1 27.648-31.701334l4.352-0.298666H298.666667V426.496l-10.666667 0.042667-9.173333-0.256a160 160 0 0 1-150.613334-151.893334L128 265.898667l0.256-63.36A32 32 0 0 1 192 198.4l0.256 4.352L192 266.24a96 96 0 0 0 89.045333 96.128l6.570667 0.256h11.434667A160.128 160.128 0 0 1 406.613333 222.122667a126.634667 126.634667 0 0 1-22.357333-63.701334L384 149.461333v-32.085333a32 32 0 0 1 63.701333-4.309333l0.298667 4.309333v32.085333a64 64 0 0 0 127.701333 6.186667l0.298667-6.186667v-32.085333a32 32 0 0 1 32-32z" p-id="3269" fill="#999999"></path></svg>